<svg xmlns="http://www.w3.org/2000/svg" xmlns:xlink="http://www.w3.org/1999/xlink" viewBox="0,0,256,256" width="48px" height="48px" fill-rule="nonzero"><g fill="none" fill-rule="nonzero" stroke="none" stroke-width="1" stroke-linecap="butt" stroke-linejoin="miter" stroke-miterlimit="10" stroke-dasharray="" stroke-dashoffset="0" font-family="none" font-weight="none" font-size="none" text-anchor="none" style="mix-blend-mode: normal"><g transform="scale(5.33333,5.33333)"><path d="M23.426,31.911l-1.719,3.936c-0.661,1.513 -2.754,1.513 -3.415,0l-1.719,-3.936c-1.529,-3.503 -4.282,-6.291 -7.716,-7.815l-4.73,-2.1c-1.504,-0.668 -1.504,-2.855 0,-3.523l4.583,-2.034c3.522,-1.563 6.324,-4.455 7.827,-8.077l1.741,-4.195c0.646,-1.557 2.797,-1.557 3.443,0l1.741,4.195c1.503,3.622 4.305,6.514 7.827,8.077l4.583,2.034c1.504,0.668 1.504,2.855 0,3.523l-4.73,2.1c-3.434,1.524 -6.187,4.313 -7.716,7.815z" fill="#549295"></path><path d="M38.423,43.248l-0.493,1.131c-0.361,0.828 -1.507,0.828 -1.868,0l-0.493,-1.131c-0.879,-2.016 -2.464,-3.621 -4.44,-4.5l-1.52,-0.675c-0.822,-0.365 -0.822,-1.56 0,-1.925l1.435,-0.638c2.027,-0.901 3.64,-2.565 4.504,-4.65l0.507,-1.222c0.353,-0.852 1.531,-0.852 1.884,0l0.507,1.222c0.864,2.085 2.477,3.749 4.504,4.65l1.435,0.638c0.822,0.365 0.822,1.56 0,1.925l-1.52,0.675c-1.978,0.879 -3.562,2.484 -4.442,4.5z" fill="#3c6e71"></path></g></g></svg>